<svg xmlns="http://www.w3.org/2000/svg" width="84.363" height="78.219" viewBox="0 0 84.363 78.219">
  <g id="LOGO" transform="translate(-24.46 -6.101)">
    <path id="Path_10" d="M30.595,46.046c.582,0,.043,1.258.984,2.507.445.625,1.882,4.124,2.464,4.569,1.027,2.1,1.121,3.226,2.148,5.33.719,3,1.617,4.081,1.617,7.709,0,1.523-1.078,2.148-2.464,2.148-2.019,0-5.561-2.507-6.366-5.245-.222-.761-.984-.9-.984-5.467,0-5.51,1.215-6.451,1.48-9.1C29.962,47.791,30.141,46.046,30.595,46.046ZM43.857,21.028c0-.625-1.386-1.258-1.8-1.258-1.027,0-2.019.761-4.03,2.96-1.164,1.84-2.781,3.14-3.448,4.526-.9.359-5.151,7.846-5.467,9.01-1.121.9-2.738,5.784-3.448,8.248a46.651,46.651,0,0,0-1.206,8.513c0,2.148.265,9.506,1.566,10.849a7.028,7.028,0,0,0,1.206,3.268c2.824,5.964,4.3,5.6,5.827,6.725.856.719,1.3.719,3.9.719,4.03-.984,4.261-3.679,4.706-4.124a16.568,16.568,0,0,0,.719-4.663,20.241,20.241,0,0,0-1.258-7.084c-.222-.445-1.343-4.3-2.558-5.425-.137-.984-3.1-4.971-3.722-5.245-1.84-.856-1.976-3.1-3.277-3.1-.222,0-.582-.086-.582-.265,0-.222,1.523-4.389,2.062-4.749,2.156-5.51,3.363-5.6,5.022-9.728.582-1.343,4.21-6.272,4.483-7.264a2.456,2.456,0,0,0,1.3-1.917ZM49.6,46.046c.582,0,.043,1.258.984,2.507.445.625,1.882,4.124,2.464,4.569,1.027,2.1,1.121,3.226,2.148,5.33.719,3,1.617,4.081,1.617,7.709,0,1.523-1.078,2.148-2.464,2.148-2.019,0-5.561-2.507-6.366-5.245C47.758,62.3,47,62.165,47,57.6c0-5.51,1.206-6.451,1.48-9.1C49.016,47.791,49.2,46.046,49.6,46.046ZM62.911,21.028c0-.625-1.386-1.258-1.8-1.258-1.027,0-2.019.761-4.03,2.96-1.164,1.84-2.781,3.14-3.448,4.526-.9.359-5.151,7.846-5.467,9.01-1.121.9-2.738,5.784-3.448,8.248a46.616,46.616,0,0,0-1.215,8.513c0,2.148.265,9.506,1.566,10.849a6.948,6.948,0,0,0,1.215,3.268c2.823,5.964,4.3,5.6,5.827,6.725.856.719,1.3.719,3.9.719,4.038-.984,4.261-3.679,4.706-4.124a16.568,16.568,0,0,0,.719-4.663,20.24,20.24,0,0,0-1.258-7.084c-.222-.445-1.343-4.3-2.558-5.425-.137-.984-3.1-4.971-3.722-5.245-1.84-.856-1.976-3.1-3.277-3.1-.222,0-.582-.086-.582-.265,0-.222,1.523-4.389,2.062-4.749,2.148-5.51,3.363-5.6,5.022-9.728.582-1.343,4.218-6.272,4.483-7.264a2.5,2.5,0,0,0,1.3-1.917Zm4.971,3.14a1.976,1.976,0,0,1-3.953,0,1.956,1.956,0,0,1,1.925-1.976,2,2,0,0,1,2.028,1.976Zm.676,0a2.644,2.644,0,1,0-2.644,2.644h0a2.6,2.6,0,0,0,2.644-2.541v-.1Z" transform="translate(0 -1.974)" fill="#242a3a"/>
    <path id="Path_12" d="M100.5,73.026a8.36,8.36,0,0,1-1.078-2.781c-1.3-1.66-2.507-6.006-3.226-8.693C95.073,56.889,93.105,53.441,92.207,49a43.936,43.936,0,0,1-2.2-5.741c-.317-.4-1.121-4.261-1.66-4.261-.222,0-.445.317-.856,2.96-.539.9-.625,2.148-.761,4.167-.856,1.078-.856,3.448-1.7,5.245-.539,5.159-1.566,7.221-1.566,8.12a24.851,24.851,0,0,1-1.027,5.339C82.3,68.1,81,68.859,80.956,72.538c0,1.66-1.7,5.339-2.148,8.607l-.445.317c-.8.086-2.173,2.678-2.438,2.858-.761,0-.163-2.447-.163-4.646,0-2.464,1.48-9.1,1.617-12.552.086-1.566.8-3.542.856-6.99,0-1.976.582-2.379,1.121-8.111.761-8.385,1.566-10.986,1.566-13.45C82,32.068,81.461,28,82.8,22.476c0-.8-.137-1.566-.137-3.542.761-6.323,1.215-6.323,4.749-6.5,1.343,0,1.437,1.386,2.062,1.386.761,0,2.327-4.526,3.765-4.526.8,0,1.566.9,1.566,2.156-1.352,4.441-2.558,9.6-2.558,11.482,0,2.379,1.745,6.408,1.66,7.709,1.343,3.542,1.523,5.425,1.976,6.143.761,4.843,1.566,5.51,1.66,6.9.086,1.078,2.421,7.221,2.421,8.787,1.3,2.464,1.566,5.51,2.687,7.213.137,1.8,2.1,6.725,2.687,6.725.761,0,.539-1.66,1.3-5.245.445-2.284.8-7.4,1.8-12.329,0-3.14.9-9.865.9-13.938,0-.676.317-1.882.317-12.637,0-1.8.359-2.379.359-4.261.856-1.66,1.215-6.99,2.421-10.353,1.882-2.156,2.13-1.275,2.447-1.275.539,0,1.318-1.463,1.318,2.387a56.8,56.8,0,0,1-.676,8.385,4.443,4.443,0,0,0,.137,1.386c-.317,1.078-.582,7.127-.856,13.63a13.981,13.981,0,0,0-.317,1.976,8.413,8.413,0,0,0,.222,1.66,132.478,132.478,0,0,0-1.343,15.281c-.676,1.882-1.566,13.45-2.781,17.882,0,2.558-.582,3.542-1.976,6.408-1.976.582-4.081,2.464-5.108,2.464-1.164-.06-2.148-2.524-3-4.809Z" transform="translate(-7.375)" fill="#242a3a"/>
  </g>
</svg>
